<svg width="0" height="0" class="hidden">
  <symbol fill="none" xmlns="http://www.w3.org/2000/svg" viewBox="0 0 21 24" id="iconCart">
    <path d="M10.5005 0C7.8941 0 5.75471 2.08062 5.75471 4.61538V5.53846H1.0678L1.00895 6.40431L0.0597968 23.0197L0 24H21L20.9412 23.0188L19.992 6.40338L19.9322 5.53846H15.2462V4.61538C15.2462 2.08062 13.1068 0 10.5005 0ZM10.5005 1.84615C11.2557 1.84615 11.9799 2.13791 12.5139 2.65724C13.0479 3.17657 13.3479 3.88094 13.3479 4.61538V5.53846H7.65302V4.61538C7.65302 3.88094 7.95302 3.17657 8.48702 2.65724C9.02102 2.13791 9.74528 1.84615 10.5005 1.84615ZM2.84746 7.38462H5.75471V10.1538H7.65302V7.38462H13.3479V10.1538H15.2462V7.38462H18.1535L18.984 22.1538H2.0179L2.84746 7.38462Z" fill="#BECCCE" fill-opacity="0.7"></path>
  </symbol>
  <symbol fill="none" xmlns="http://www.w3.org/2000/svg" viewBox="0 0 13 11" id="iconFiltersvg">
    <path d="M12.4818 0H0.517472C0.11931 0 -0.129338 0.410196 0.0705556 0.73743L3.85065 6.81201V10.5084C3.85065 10.7803 4.08142 11 4.36745 11H8.63184C8.91787 11 9.14864 10.7803 9.14864 10.5084V6.81201L12.9304 0.73743C13.1286 0.410196 12.88 0 12.4818 0ZM7.98503 9.89386H5.01426V7.49721H7.98666V9.89386H7.98503ZM8.14105 6.25894L7.98666 6.51397H5.01263L4.85825 6.25894L1.63557 1.10615H11.3637L8.14105 6.25894Z" fill="#BECCCE" fill-opacity="0.7"></path>
  </symbol>
  <symbol fill="none" xmlns="http://www.w3.org/2000/svg" viewBox="0 0 25 21" id="iconHeart">
    <path d="M12.5005 1.81827C11.1348 0.649004 9.3472 5.43306e-05 7.49187 0C6.50986 0.00095197 5.53775 0.182714 4.63148 0.534825C3.72521 0.886936 2.90267 1.40244 2.2112 2.05168C-0.738109 4.80944 -0.736856 9.12288 2.2137 11.869L11.4038 20.4258C11.6169 20.7748 12.028 21 12.5005 21C12.6946 20.9982 12.8855 20.9541 13.0579 20.8713C13.2303 20.7884 13.3794 20.669 13.4933 20.5227L22.7874 11.869C25.738 9.12171 25.738 4.80944 22.7849 2.04702C22.0938 1.39897 21.2719 0.884508 20.3665 0.533208C19.4611 0.181909 18.4901 0.000699774 17.5092 0C15.6539 0.00028238 13.8664 0.649201 12.5005 1.81827ZM21.0125 3.69723C22.9716 5.53068 22.9729 8.39463 21.0151 10.2187L12.5005 18.1466L3.98604 10.2187C2.0282 8.39463 2.02945 5.53068 3.98354 3.7019C4.93614 2.81961 6.18204 2.33411 7.49187 2.33411C8.8017 2.33411 10.0426 2.81961 10.9877 3.69957L11.6144 4.28309C11.7307 4.39157 11.8688 4.47762 12.0209 4.53634C12.1729 4.59505 12.3359 4.62528 12.5005 4.62528C12.6652 4.62528 12.8282 4.59505 12.9802 4.53634C13.1323 4.47762 13.2704 4.39157 13.3867 4.28309L14.0134 3.69957C15.9086 1.93848 19.1199 1.94315 21.0125 3.69723Z" fill="#BECCCE" fill-opacity="0.7"></path>
  </symbol>
  <symbol fill="none" xmlns="http://www.w3.org/2000/svg" viewBox="0 0 21 21" id="iconSearch">
    <path d="M8.9806 17.9602C10.9731 17.9598 12.9083 17.2928 14.4778 16.0654L19.4127 21L21 19.4128L16.0652 14.4782C17.2933 12.9085 17.9607 10.9731 17.9612 8.98011C17.9612 4.0287 13.9323 0 8.9806 0C4.02892 0 0 4.0287 0 8.98011C0 13.9315 4.02892 17.9602 8.9806 17.9602ZM8.9806 2.24503C12.6952 2.24503 15.716 5.26571 15.716 8.98011C15.716 12.6945 12.6952 15.7152 8.9806 15.7152C5.266 15.7152 2.24515 12.6945 2.24515 8.98011C2.24515 5.26571 5.266 2.24503 8.9806 2.24503Z" fill="#BECCCE" fill-opacity="0.7"></path>
  </symbol>
  <symbol fill="none" xmlns="http://www.w3.org/2000/svg" viewBox="0 0 8 12" id="iconSort">
    <path d="M4.35355 0.646446C4.15829 0.451184 3.84171 0.451184 3.64645 0.646446L0.464466 3.82843C0.269204 4.02369 0.269204 4.34027 0.464466 4.53553C0.659728 4.7308 0.976311 4.7308 1.17157 4.53553L4 1.70711L6.82843 4.53553C7.02369 4.7308 7.34027 4.7308 7.53553 4.53553C7.7308 4.34027 7.7308 4.02369 7.53553 3.82843L4.35355 0.646446ZM4.5 12L4.5 1H3.5L3.5 12H4.5Z" fill="#BECCCE" fill-opacity="0.7"></path>
  </symbol>
</svg>