<svg width="25" height="21" viewBox="0 0 25 21" fill="none" xmlns="http://www.w3.org/2000/svg">
<path d="M12.5005 1.81827C11.1348 0.649004 9.3472 5.43306e-05 7.49187 0C6.50986 0.00095197 5.53775 0.182714 4.63148 0.534825C3.72521 0.886936 2.90267 1.40244 2.2112 2.05168C-0.738109 4.80944 -0.736856 9.12288 2.2137 11.869L11.4038 20.4258C11.6169 20.7748 12.028 21 12.5005 21C12.6946 20.9982 12.8855 20.9541 13.0579 20.8713C13.2303 20.7884 13.3794 20.669 13.4933 20.5227L22.7874 11.869C25.738 9.12171 25.738 4.80944 22.7849 2.04702C22.0938 1.39897 21.2719 0.884508 20.3665 0.533208C19.4611 0.181909 18.4901 0.000699774 17.5092 0C15.6539 0.00028238 13.8664 0.649201 12.5005 1.81827ZM21.0125 3.69723C22.9716 5.53068 22.9729 8.39463 21.0151 10.2187L12.5005 18.1466L3.98604 10.2187C2.0282 8.39463 2.02945 5.53068 3.98354 3.7019C4.93614 2.81961 6.18204 2.33411 7.49187 2.33411C8.8017 2.33411 10.0426 2.81961 10.9877 3.69957L11.6144 4.28309C11.7307 4.39157 11.8688 4.47762 12.0209 4.53634C12.1729 4.59505 12.3359 4.62528 12.5005 4.62528C12.6652 4.62528 12.8282 4.59505 12.9802 4.53634C13.1323 4.47762 13.2704 4.39157 13.3867 4.28309L14.0134 3.69957C15.9086 1.93848 19.1199 1.94315 21.0125 3.69723Z" fill="#BECCCE" fill-opacity="0.7"/>
</svg>
