<svg width="25" height="20" viewBox="0 0 25 20" fill="none" xmlns="http://www.w3.org/2000/svg">
<path d="M11.62 2.65822C11.0462 2.13492 10.3619 1.71884 9.60669 1.43418C8.85153 1.14951 8.04065 1.00193 7.22116 1.00002C6.40168 0.998105 5.58994 1.14189 4.83313 1.42303C4.07632 1.70416 3.38952 2.11704 2.81267 2.63765C0.386224 4.8298 0.397724 8.39252 2.83567 10.595L11.8587 18.7464C12.2324 19.0845 12.839 19.0845 13.2127 18.7464L22.1897 10.6412C23.3543 9.57806 24.0045 8.14779 24 6.65939C23.9954 5.17099 23.3364 3.74394 22.1653 2.68651C21.5909 2.1622 20.9056 1.74532 20.1494 1.46014C19.3932 1.17495 18.5811 1.02716 17.7604 1.02537C16.9397 1.02357 16.1268 1.16781 15.369 1.44968C14.6112 1.73156 13.9237 2.14543 13.3464 2.66722L12.4897 3.44251L11.62 2.65822Z" fill="#F97979" stroke="#F97979" stroke-width="2" stroke-linejoin="round"/>
</svg>
