<svg width="64" height="64" viewBox="0 0 64 64" fill="none" xmlns="http://www.w3.org/2000/svg">
<path d="M32 0L38.9058 8.48091L49.3005 5.07989L50.5249 15.9481L61.1082 18.7067L56.2625 28.5116L63.6743 36.5541L54.2969 42.1827L56.184 52.9555L45.2522 52.6208L41.0154 62.7038L32 56.512L22.9846 62.7038L18.7478 52.6208L7.81601 52.9555L9.7031 42.1827L0.325714 36.5541L7.7375 28.5116L2.89178 18.7067L13.4751 15.9481L14.6995 5.07989L25.0942 8.48091L32 0Z" fill="#01AB8D"/>
<path d="M24.891 27.801V38H23.659C23.477 38 23.323 37.972 23.197 37.916C23.0757 37.8553 22.9543 37.7527 22.833 37.608L18.024 31.525C18.0427 31.707 18.0543 31.8843 18.059 32.057C18.0683 32.225 18.073 32.3837 18.073 32.533V38H15.987V27.801H17.233C17.3357 27.801 17.422 27.8057 17.492 27.815C17.562 27.8243 17.625 27.843 17.681 27.871C17.737 27.8943 17.7907 27.9293 17.842 27.976C17.8933 28.0227 17.9517 28.0857 18.017 28.165L22.868 34.29C22.8447 34.094 22.8283 33.905 22.819 33.723C22.8097 33.5363 22.805 33.3613 22.805 33.198V27.801H24.891ZM29.2498 29.621V32.001H32.4558V33.751H29.2498V36.18H33.4358V38H26.8698V27.801H33.4358V29.621H29.2498ZM48.7902 27.801L45.6402 38H43.4982L41.5802 31.679C41.5429 31.581 41.5079 31.4737 41.4752 31.357C41.4425 31.2357 41.4099 31.1097 41.3772 30.979C41.3445 31.1097 41.3119 31.2357 41.2792 31.357C41.2465 31.4737 41.2115 31.581 41.1742 31.679L39.2282 38H37.0862L33.9362 27.801H35.9242C36.1295 27.801 36.2999 27.8477 36.4352 27.941C36.5752 28.0343 36.6662 28.158 36.7082 28.312L38.1082 33.632C38.1502 33.8 38.1922 33.9843 38.2342 34.185C38.2762 34.381 38.3182 34.5863 38.3602 34.801C38.4442 34.3623 38.5469 33.9727 38.6682 33.632L40.3202 28.312C40.3622 28.1813 40.4509 28.0647 40.5862 27.962C40.7262 27.8547 40.8942 27.801 41.0902 27.801H41.7902C41.9955 27.801 42.1612 27.85 42.2872 27.948C42.4132 28.0413 42.5089 28.1627 42.5742 28.312L44.2122 33.632C44.3335 33.9587 44.4362 34.3297 44.5202 34.745C44.5575 34.535 44.5949 34.339 44.6322 34.157C44.6742 33.9703 44.7162 33.7953 44.7582 33.632L46.1582 28.312C46.1955 28.1767 46.2842 28.0577 46.4242 27.955C46.5642 27.8523 46.7322 27.801 46.9282 27.801H48.7902Z" fill="white"/>
</svg>
