<svg viewBox="0 0 32 26" xmlns="http://www.w3.org/2000/svg">
<path d="M14.9287 4.02672C14.2302 3.38713 13.397 2.87859 12.4777 2.53066C11.5584 2.18274 10.5712 2.00236 9.57359 2.00002C8.57596 1.99768 7.58775 2.17343 6.66642 2.51703C5.74508 2.86064 4.90899 3.36527 4.20673 4.00158C1.25279 6.68087 1.26679 11.0353 4.23473 13.7272L15.2192 23.69C15.6742 24.1033 16.4127 24.1033 16.8677 23.69L27.7962 13.7837C29.2139 12.4843 30.0055 10.7362 30 8.91704C29.9944 7.09788 29.1921 5.35371 27.7664 4.06129C27.0672 3.42047 26.233 2.91095 25.3123 2.56239C24.3917 2.21383 23.403 2.0332 22.4039 2.031C21.4048 2.02881 20.4152 2.2051 19.4927 2.54961C18.5702 2.89412 17.7332 3.39997 17.0304 4.03772L15.9875 4.98529L14.9287 4.02672Z"  stroke-width="2.5" stroke-linejoin="round"/>
</svg>
