<svg width="28" height="23" viewBox="0 0 28 23" xmlns="http://www.w3.org/2000/svg">
<path d="M13.0818 3.75035C12.483 3.19797 11.7689 2.75878 10.9809 2.4583C10.1929 2.15782 9.34676 2.00204 8.49165 2.00002C7.63653 1.998 6.7895 2.14978 5.99979 2.44653C5.21007 2.74328 4.49342 3.17909 3.89148 3.72863C1.35954 6.04257 1.37154 9.80321 3.91548 12.128L13.3308 20.7323C13.7208 21.0892 14.3537 21.0892 14.7437 20.7323L24.111 12.1769C25.3262 11.0546 26.0047 9.54489 26 7.97381C25.9952 6.40272 25.3075 4.89639 24.0855 3.7802C23.4862 3.22677 22.7711 2.78673 21.982 2.4857C21.1929 2.18467 20.3455 2.02867 19.4891 2.02678C18.6327 2.02488 17.7845 2.17713 16.9937 2.47466C16.203 2.7722 15.4856 3.20907 14.8832 3.75985L13.9893 4.57821L13.0818 3.75035Z" stroke-width="2.5" stroke-linejoin="round"/>
</svg>
