<svg width="114" height="33" viewBox="0 0 114 33" fill="none" xmlns="http://www.w3.org/2000/svg">
<path d="M15.858 21.36V32H10.766V21.36L0.753 4.526H5.256C5.69933 4.526 6.04767 4.63367 6.301 4.849C6.567 5.06433 6.78867 5.33667 6.966 5.666L11.982 14.843C12.2733 15.3877 12.5267 15.9007 12.742 16.382C12.97 16.8633 13.1727 17.3447 13.35 17.826C13.5147 17.3447 13.7047 16.8633 13.92 16.382C14.1353 15.9007 14.3823 15.3877 14.661 14.843L19.658 5.666C19.7973 5.38733 20.0063 5.12766 20.285 4.887C20.5637 4.64633 20.9183 4.526 21.349 4.526H25.871L15.858 21.36ZM53.3049 18.263C53.3049 20.277 52.9693 22.1453 52.2979 23.868C51.6393 25.578 50.7019 27.06 49.4859 28.314C48.2699 29.568 46.8069 30.5497 45.0969 31.259C43.3869 31.9557 41.4869 32.304 39.3969 32.304C37.3196 32.304 35.4259 31.9557 33.7159 31.259C32.0059 30.5497 30.5366 29.568 29.3079 28.314C28.0919 27.06 27.1483 25.578 26.4769 23.868C25.8056 22.1453 25.4699 20.277 25.4699 18.263C25.4699 16.249 25.8056 14.387 26.4769 12.677C27.1483 10.9543 28.0919 9.466 29.3079 8.212C30.5366 6.958 32.0059 5.98267 33.7159 5.286C35.4259 4.57667 37.3196 4.222 39.3969 4.222C40.7903 4.222 42.1013 4.38667 43.3299 4.716C44.5586 5.03267 45.6859 5.48867 46.7119 6.084C47.7379 6.66667 48.6563 7.38233 49.4669 8.231C50.2903 9.067 50.9869 10.0043 51.5569 11.043C52.1269 12.0817 52.5576 13.209 52.8489 14.425C53.1529 15.641 53.3049 16.9203 53.3049 18.263ZM48.0799 18.263C48.0799 16.7557 47.8773 15.4067 47.4719 14.216C47.0666 13.0127 46.4903 11.993 45.7429 11.157C44.9956 10.321 44.0836 9.68133 43.0069 9.238C41.9429 8.79467 40.7396 8.573 39.3969 8.573C38.0543 8.573 36.8446 8.79467 35.7679 9.238C34.7039 9.68133 33.7919 10.321 33.0319 11.157C32.2846 11.993 31.7083 13.0127 31.3029 14.216C30.8976 15.4067 30.6949 16.7557 30.6949 18.263C30.6949 19.7703 30.8976 21.1257 31.3029 22.329C31.7083 23.5197 32.2846 24.533 33.0319 25.369C33.7919 26.1923 34.7039 26.8257 35.7679 27.269C36.8446 27.7123 38.0543 27.934 39.3969 27.934C40.7396 27.934 41.9429 27.7123 43.0069 27.269C44.0836 26.8257 44.9956 26.1923 45.7429 25.369C46.4903 24.533 47.0666 23.5197 47.4719 22.329C47.8773 21.1257 48.0799 19.7703 48.0799 18.263ZM68.8514 27.877C69.8394 27.877 70.7197 27.7123 71.4924 27.383C72.2777 27.0537 72.9364 26.5913 73.4684 25.996C74.0004 25.4007 74.4057 24.6787 74.6844 23.83C74.9757 22.9813 75.1214 22.0313 75.1214 20.98V4.526H80.2324V20.98C80.2324 22.614 79.9664 24.1277 79.4344 25.521C78.915 26.9017 78.1614 28.0987 77.1734 29.112C76.198 30.1127 75.0074 30.898 73.6014 31.468C72.1954 32.0253 70.612 32.304 68.8514 32.304C67.078 32.304 65.4884 32.0253 64.0824 31.468C62.6764 30.898 61.4794 30.1127 60.4914 29.112C59.516 28.0987 58.7624 26.9017 58.2304 25.521C57.711 24.1277 57.4514 22.614 57.4514 20.98V4.526H62.5624V20.961C62.5624 22.0123 62.7017 22.9623 62.9804 23.811C63.2717 24.6597 63.6834 25.388 64.2154 25.996C64.76 26.5913 65.4187 27.0537 66.1914 27.383C66.9767 27.7123 67.8634 27.877 68.8514 27.877Z" fill="#01AB8D"/>
<path d="M94.2995 17.598C95.2622 17.598 96.0982 17.4777 96.8075 17.237C97.5295 16.9963 98.1185 16.667 98.5745 16.249C99.0432 15.8183 99.3915 15.3117 99.6195 14.729C99.8475 14.1463 99.9615 13.5067 99.9615 12.81C99.9615 11.4167 99.4992 10.3463 98.5745 9.599C97.6625 8.85167 96.2628 8.478 94.3755 8.478H91.1075V17.598H94.2995ZM107.448 32H102.831C101.957 32 101.323 31.658 100.931 30.974L95.1545 22.177C94.9392 21.8477 94.6985 21.6133 94.4325 21.474C94.1792 21.3347 93.7992 21.265 93.2925 21.265H91.1075V32H85.9965V4.526H94.3755C96.2375 4.526 97.8335 4.72233 99.1635 5.115C100.506 5.495 101.602 6.03333 102.451 6.73C103.312 7.42667 103.945 8.26266 104.351 9.238C104.756 10.2007 104.959 11.2647 104.959 12.43C104.959 13.3547 104.819 14.2287 104.541 15.052C104.275 15.8753 103.882 16.6227 103.363 17.294C102.856 17.9653 102.223 18.5543 101.463 19.061C100.715 19.5677 99.8602 19.9667 98.8975 20.258C99.2268 20.448 99.5308 20.676 99.8095 20.942C100.088 21.1953 100.342 21.4993 100.57 21.854L107.448 32Z" fill="#333333"/>
<path d="M39.5 23C39.4408 23.0003 39.3821 22.9885 39.3273 22.9651C39.2724 22.9416 39.2226 22.9071 39.1805 22.8635L35.6845 19.2022C35.246 18.7388 35 18.1131 35 17.461C35 16.809 35.246 16.1833 35.6845 15.7198C36.1265 15.2588 36.7251 15 37.3493 15C37.9734 15 38.5721 15.2588 39.0141 15.7198L39.5 16.228L39.9859 15.7198C40.4279 15.2588 41.0266 15 41.6507 15C42.2749 15 42.8735 15.2588 43.3155 15.7198C43.754 16.1833 44 16.809 44 17.461C44 18.1131 43.754 18.7388 43.3155 19.2022L39.8195 22.8635C39.7774 22.9071 39.7276 22.9416 39.6727 22.9651C39.6179 22.9885 39.5592 23.0003 39.5 23Z" fill="#F97979"/>
</svg>
