<svg width="21" height="24" viewBox="0 0 21 24" fill="none" xmlns="http://www.w3.org/2000/svg">
<path d="M10.5005 0C7.8941 0 5.75471 2.08062 5.75471 4.61538V5.53846H1.0678L1.00895 6.40431L0.0597968 23.0197L0 24H21L20.9412 23.0188L19.992 6.40338L19.9322 5.53846H15.2462V4.61538C15.2462 2.08062 13.1068 0 10.5005 0ZM10.5005 1.84615C11.2557 1.84615 11.9799 2.13791 12.5139 2.65724C13.0479 3.17657 13.3479 3.88094 13.3479 4.61538V5.53846H7.65302V4.61538C7.65302 3.88094 7.95302 3.17657 8.48702 2.65724C9.02102 2.13791 9.74528 1.84615 10.5005 1.84615ZM2.84746 7.38462H5.75471V10.1538H7.65302V7.38462H13.3479V10.1538H15.2462V7.38462H18.1535L18.984 22.1538H2.0179L2.84746 7.38462Z" fill="#BECCCE" fill-opacity="0.7"/>
</svg>
