<svg width="13" height="15" viewBox="0 0 13 15" fill="none" xmlns="http://www.w3.org/2000/svg">
<path d="M6.50021 8.75C5.89125 8.75 5.29597 8.58505 4.78964 8.27601C4.28331 7.96697 3.88868 7.52772 3.65564 7.0138C3.4226 6.49988 3.36163 5.93438 3.48043 5.38881C3.59923 4.84324 3.89247 4.3421 4.32307 3.94876C4.75367 3.55543 5.30228 3.28756 5.89954 3.17904C6.4968 3.07052 7.11587 3.12622 7.67847 3.33909C8.24108 3.55196 8.72194 3.91245 9.06026 4.37496C9.39858 4.83747 9.57916 5.38124 9.57916 5.9375C9.57818 6.68315 9.25348 7.398 8.67628 7.92525C8.09907 8.45251 7.3165 8.74911 6.50021 8.75ZM6.50021 4.25C6.13484 4.25 5.77767 4.34897 5.47387 4.5344C5.17007 4.71982 4.93329 4.98337 4.79347 5.29172C4.65364 5.60007 4.61706 5.93937 4.68834 6.26672C4.75962 6.59406 4.93557 6.89474 5.19393 7.13074C5.45229 7.36675 5.78146 7.52746 6.13981 7.59258C6.49816 7.65769 6.86961 7.62427 7.20717 7.49655C7.54473 7.36883 7.83325 7.15253 8.03624 6.87503C8.23923 6.59752 8.34758 6.27126 8.34758 5.9375C8.34709 5.49009 8.1523 5.06112 7.80596 4.74475C7.45962 4.42838 6.99002 4.25045 6.50021 4.25Z" fill="#333333"/>
<path d="M6.5 15L1.5151 9.67018C1.44583 9.59015 1.37728 9.50961 1.30946 9.42857C0.457949 8.41167 -0.00205706 7.16958 6.91533e-06 5.89286C6.91533e-06 4.32997 0.684826 2.8311 1.90381 1.72598C3.1228 0.620853 4.77609 0 6.5 0C8.22391 0 9.8772 0.620853 11.0962 1.72598C12.3152 2.8311 13 4.32997 13 5.89286C13.0021 7.169 12.5423 8.41053 11.6911 9.42696L11.6905 9.42857C11.6905 9.42857 11.5133 9.63964 11.4867 9.66804L6.5 15ZM2.25255 8.78304C2.25373 8.78304 2.39082 8.94804 2.42214 8.98339L6.5 13.3436L10.5832 8.9775C10.6092 8.94804 10.7474 8.78196 10.748 8.78143C11.4436 7.9506 11.8195 6.93591 11.8182 5.89286C11.8182 4.61413 11.2579 3.38779 10.2605 2.48359C9.26317 1.5794 7.91047 1.07143 6.5 1.07143C5.08953 1.07143 3.73683 1.5794 2.73948 2.48359C1.74213 3.38779 1.18182 4.61413 1.18182 5.89286C1.18058 6.93656 1.55692 7.95183 2.25314 8.78304H2.25255Z" fill="#333333"/>
</svg>
